<?xml version="1.0" encoding="UTF-8"?>
<svg width="150px" height="145px" viewBox="0 0 150 145" version="1.1" xmlns="http://www.w3.org/2000/svg" xmlns:xlink="http://www.w3.org/1999/xlink">
    <title>getintouch-cta</title>
    <g id="Essais" stroke="none" stroke-width="1" fill="none" fill-rule="evenodd">
        <path d="M56.4329534,132.733829 C53.5808041,131.791389 51.8618633,132.380139 50.9904519,133.730915 L50.9556696,133.719422 C51.2317012,132.885238 51.5711293,131.917769 51.7552896,131.41953 L49.1813987,130.569035 L47.2261746,136.477839 L54.2522011,138.79946 L54.8387683,137.026819 L51.1518435,135.808542 L51.1690955,135.756406 C51.4393765,134.939601 52.7635146,133.969768 55.1461028,134.75705 C57.9460787,135.682251 58.4547367,137.643277 57.8164135,139.572328 C57.1378358,141.623031 55.3449715,142.785004 52.7189072,141.91727 C50.1797986,141.078268 49.6608919,139.672947 49.9541755,138.786626 L49.9944301,138.664974 L47.0205427,137.682308 C46.9628969,137.798214 46.9398943,137.867729 46.9226423,137.919865 C46.2153113,140.057462 46.998008,142.764527 52.0066605,144.419544 C56.9805307,146.063067 60.1440951,144.023763 61.2367203,140.721784 C62.2315843,137.715246 61.3198678,134.348619 56.4329534,132.733829 Z M36.6426226,123.089292 L35.2322081,125.273197 L42.004033,129.6404 L40.6830109,131.685888 L35.6041422,128.410485 L34.4917025,130.133002 L39.5705713,133.408404 L38.2892791,135.392374 L31.6713593,131.124425 L30.2609447,133.30833 L39.8338427,139.481967 L46.3694258,129.362184 L36.6426226,123.089292 Z M29.0232956,115.771505 L22.1946461,122.301735 L18.9145522,118.876604 L17.0353502,120.673683 L26.0271134,130.063037 L27.9063154,128.265959 L24.6262215,124.840828 L31.454871,118.310598 L29.0232956,115.771505 Z M18.6359369,101.35915 L7.94838296,106.927032 L9.57420551,110.04338 L20.2617595,104.475498 L18.6359369,101.35915 Z M16.297843,94.9600327 L7.77712921,97.4068806 L7.77207015,97.3892883 L14.1224496,87.3953391 L13.1612292,84.0528001 L1.57728354,87.3793001 L2.51826769,90.6514698 L9.48976082,88.6495033 L9.49481988,88.6670956 L4.2990549,96.8439631 L5.65488152,101.558702 L17.2388272,98.2322024 L16.297843,94.9600327 Z M12.7008107,66.4478172 L3.28214446,65.6587182 L3.678504,60.9344805 L1.08654545,60.7173254 L0,73.6679382 L2.59195855,73.8850934 L2.98831809,69.1608557 L12.4069844,69.9499548 L12.7008107,66.4478172 Z M16.283098,52.7658632 C18.1839816,47.477232 16.2514305,44.352456 13.0277332,43.1954089 C9.8902311,42.069299 6.36505009,43.4296814 4.52608448,48.5460445 C2.68711887,53.6624076 4.54051295,56.9532643 7.67801509,58.0793743 C11.0741026,59.2982955 14.4379406,57.8994531 16.283098,52.7658632 Z M13.8351568,51.8872499 C12.8630436,54.5918594 10.9802031,55.335861 8.9459984,54.6057457 C7.10142297,53.943692 6.00810438,52.1120404 6.97402571,49.4246578 C7.93994704,46.7372751 9.94965254,46.0193587 11.794228,46.6814123 C13.7422375,47.3805905 14.8320371,49.1137333 13.8351568,51.8872499 Z M24.2822425,37.1298152 C26.8761749,33.5603729 26.9950994,30.3439252 23.9122352,28.1067644 L18.5172228,24.1917329 L16.6659516,26.7392188 L21.7497132,30.428383 C23.6172175,31.7835862 23.5039392,33.4658649 22.126249,35.3616683 C20.7485588,37.2574717 19.1827771,37.8857034 17.3152728,36.5305002 L12.2315111,32.8413359 L10.1649758,35.685041 L15.5599882,39.6000725 C18.6428524,41.8372333 21.6990733,40.6844466 24.2822425,37.1298152 Z M36.1186089,24.5911145 C40.1501262,21.3933738 40.0365204,18.1883691 38.5788658,16.3532492 C38.55609,16.3245754 38.4763745,16.2242173 38.4050878,16.1639128 L35.9517445,18.1098689 L36.0200721,18.1958901 C36.8513907,19.2424819 36.5674966,20.9165785 34.6162996,22.4642394 C32.3351207,24.2736372 30.3865273,23.6458592 29.190795,22.1404874 C27.9039593,20.5204206 28.0035845,18.4082432 30.0695578,16.7695433 C32.1068371,15.1536032 33.8588766,15.5633711 34.5535402,16.4379204 L34.5990919,16.4952679 L37.0524352,14.5493119 C36.9984546,14.4519107 36.9073512,14.3372158 36.8845754,14.308542 C35.6319035,12.7314858 32.4839896,11.5359665 28.3233489,14.8361259 C24.3922609,17.9542075 24.0720479,21.6435286 26.2926936,24.4392191 C28.2286411,26.8764877 31.6423334,28.1416308 36.1186089,24.5911145 Z M47.1800388,17.1469503 L45.3093712,12.6115356 L52.4560194,9.66801862 L54.326687,14.2034334 L57.5782425,12.8642029 L52.9853348,1.7287443 L49.7337793,3.06797476 L51.4648448,7.26492572 L44.3181966,10.2084427 L42.5871311,6.01149169 L39.3355755,7.35072215 L43.9284832,18.4861808 L47.1800388,17.1469503 Z M71.9972499,6.01940904 L71.8566025,4.15766869 L66.5961977,4.55450966 L66.7368452,6.41625001 L71.9972499,6.01940904 Z M88.5461693,12.3508426 C91.4704317,13.0380318 93.1306591,12.2999616 93.8793558,10.8775953 L93.9150175,10.8859757 C93.7137464,11.7412511 93.4610992,12.7348822 93.3216671,13.2474209 L95.9606355,13.8675672 L97.3863058,7.80936648 L90.1826352,6.11653464 L89.7549342,7.93399486 L93.5350781,8.82231256 L93.5224987,8.87576727 C93.3254207,9.71322443 92.0921158,10.7960665 89.6492869,10.2220122 C86.7785172,9.54739353 86.0986279,7.63888677 86.5640673,5.66106241 C87.0588588,3.55851039 88.7420886,2.24293377 91.4345496,2.87565062 C94.0378563,3.48741658 94.6788691,4.84148285 94.4650186,5.75021296 L94.4356665,5.87494062 L97.4847449,6.59146103 C97.5319278,6.47092355 97.5487004,6.3996506 97.5612798,6.34619588 C98.077037,4.15455268 97.0582814,1.52709105 91.9229914,0.320319832 C86.8233633,-0.878071028 83.8522776,1.43231403 83.0555795,4.81777914 C82.3301649,7.90033423 83.5356955,11.1734027 88.5461693,12.3508426 Z M109.116346,20.2177262 L110.329265,17.9184214 L103.199609,14.1627435 L104.335652,12.0091693 L109.682895,14.8259277 L110.639563,13.0123915 L105.292321,10.1956331 L106.394198,8.10682802 L113.361817,11.7771496 L114.574736,9.4778448 L104.495994,4.16868195 L98.8755669,14.823207 L109.116346,20.2177262 Z M117.350333,26.8484093 L123.583941,19.7487272 L127.150067,22.8753954 L128.865517,20.9216069 L119.08965,12.3504316 L117.3742,14.3042201 L120.940326,17.4308883 L114.706718,24.5305703 L117.350333,26.8484093 Z M128.945018,40.2795589 L139.101372,33.7943514 L137.20769,30.8328943 L127.051336,37.3181019 L128.945018,40.2795589 Z M131.852933,46.4705882 L140.123965,43.2809617 L140.13056,43.2980385 L134.688701,53.8136143 L135.941714,57.0582073 L147.186217,52.7218968 L145.959582,49.5456111 L139.192374,52.1553055 L139.185779,52.1382287 L143.63821,43.5345758 L141.870801,38.9579921 L130.626298,43.2943025 L131.852933,46.4705882 Z M137.932275,74.5593165 L147.383938,74.5294079 L147.398961,79.2701962 L150,79.2619656 L149.958817,66.265982 L147.357778,66.2742127 L147.372801,71.0150011 L137.921138,71.0449097 L137.932275,74.5593165 Z M135.567409,88.488288 C134.142891,93.9244159 136.344886,96.865806 139.65849,97.732894 C142.883495,98.5767979 146.274202,96.9096645 147.652318,91.6506092 C149.030434,86.391554 146.89256,83.2777281 143.667555,82.4338242 C140.176753,81.5203678 136.950165,83.2115255 135.567409,88.488288 Z M138.083622,89.1467185 C138.812121,86.3666792 140.621594,85.4589068 142.712531,86.0060532 C144.60855,86.5021945 145.859964,88.2298466 145.136105,90.9921787 C144.412246,93.7545108 142.474095,94.6475326 140.578075,94.1513913 C138.575737,93.627429 137.336562,91.9975869 138.083622,89.1467185 Z M128.976848,104.759873 C126.705914,108.542734 126.869511,111.757222 130.136701,113.71581 L135.854284,117.143338 L137.475033,114.443537 L132.087311,111.21375 C130.108148,110.027298 130.073464,108.341572 131.279604,106.332417 C132.485743,104.323263 133.990408,103.560332 135.969572,104.746785 L141.357294,107.976571 L143.166503,104.96284 L137.44892,101.535311 C134.18173,99.5767232 131.238359,100.992708 128.976848,104.759873 Z M118.276603,118.295368 C114.539387,121.832127 114.932149,125.015034 116.544341,126.71619 C116.569532,126.74277 116.657699,126.835802 116.733975,126.889667 L119.008223,124.737405 L118.932652,124.657663 C118.013198,123.687473 118.149972,121.995019 119.958731,120.283278 C122.073383,118.282052 124.069323,118.737695 125.391824,120.133174 C126.815087,121.634976 126.900097,123.747791 124.98494,125.560222 C123.096383,127.347481 121.315267,127.091896 120.546957,126.281189 L120.496576,126.228028 L118.222328,128.38029 C118.284599,128.472618 118.385361,128.57894 118.410552,128.605521 C119.796029,130.067452 123.036251,130.984201 126.893163,127.334165 C130.537281,123.885511 130.534437,120.18234 128.078363,117.590736 C125.93717,115.331389 122.426109,114.368433 118.276603,118.295368 Z M107.906248,126.680786 L110.169015,131.034126 L103.30927,134.594616 L101.046503,130.241276 L97.9254822,131.861215 L103.481081,142.549638 L106.602103,140.929699 L104.508199,136.901236 L111.367943,133.340746 L113.461847,137.36921 L116.582868,135.749271 L111.027269,125.060848 L107.906248,126.680786 Z M84.1723537,139.943952 L84.4755879,141.786236 L89.6810179,140.930651 L89.3777837,139.088368 L84.1723537,139.943952 Z" id="getintouch-cta" fill="#fff" fill-rule="nonzero"></path>
    </g>
</svg>
